{
  "accessors": [
    {
      "bufferView": 2,
      "componentType": 5126,
      "count": 52263,
      "max": [
        0.16038300096988678,
        0.05222000181674957,
        0.058104999363422394
      ],
      "min": [
        -0.12096899747848511,
        -0.058028001338243484,
        -0.057649001479148865
      ],
      "type": "VEC3"
    },
    {
      "bufferView": 2,
      "byteOffset": 627156,
      "componentType": 5126,
      "count": 52263,
      "max": [
        0.9999707937240601,
        0.9999995231628418,
        0.9999998807907104
      ],
      "min": [
        -0.9997549653053284,
        -0.9999959468841553,
        -0.9866548776626587
      ],
      "type": "VEC3"
    },
    {
      "bufferView": 1,
      "componentType": 5126,
      "count": 52263,
      "max": [
        0.9918519854545593,
        0.9920219779014587
      ],
      "min": [
        0.008035000413656235,
        0.007934999652206898
      ],
      "type": "VEC2"
    },
    {
      "bufferView": 0,
      "componentType": 5125,
      "count": 280827,
      "type": "SCALAR"
    },
    {
      "bufferView": 2,
      "byteOffset": 1254312,
      "componentType": 5126,
      "count": 19080,
      "max": [
        0.1545110046863556,
        0.061333999037742615,
        0.06132600083947182
      ],
      "min": [
        -0.11974599957466125,
        -0.05637799948453903,
        -0.057718001306056976
      ],
      "type": "VEC3"
    },
    {
      "bufferView": 2,
      "byteOffset": 1483272,
      "componentType": 5126,
      "count": 19080,
      "max": [
        0.9999158382415771,
        0.9999822378158569,
        0.9999672174453735
      ],
      "min": [
        -0.9999697208404541,
        -0.9999878406524658,
        -0.9996243119239807
      ],
      "type": "VEC3"
    },
    {
      "bufferView": 1,
      "byteOffset": 418104,
      "componentType": 5126,
      "count": 19080,
      "max": [
        0.9919099807739258,
        0.9920610189437866
      ],
      "min": [
        0.007942000404000282,
        0.41607901453971863
      ],
      "type": "VEC2"
    },
    {
      "bufferView": 0,
      "byteOffset": 1123308,
      "componentType": 5125,
      "count": 84234,
      "type": "SCALAR"
    }
  ],
  "asset": {
    "extras": {
      "author": "Terrie (https://sketchfab.com/terrielsimmons)",
      "license": "CC-BY-4.0 (http://creativecommons.org/licenses/by/4.0/)",
      "source": "https://sketchfab.com/3d-models/asics-shoe-fa6b5937408441f7aa17d652998d1ae7",
      "title": "Asics Shoe"
    },
    "generator": "Sketchfab-15.17.0",
    "version": "2.0"
  },
  "bufferViews": [
    {
      "buffer": 0,
      "byteLength": 1460244,
      "name": "floatBufferViews",
      "target": 34963
    },
    {
      "buffer": 0,
      "byteLength": 570744,
      "byteOffset": 1460244,
      "byteStride": 8,
      "name": "floatBufferViews",
      "target": 34962
    },
    {
      "buffer": 0,
      "byteLength": 1712232,
      "byteOffset": 2030988,
      "byteStride": 12,
      "name": "floatBufferViews",
      "target": 34962
    }
  ],
  "buffers": [
    {
      "byteLength": 3743220,
      "uri": "scene.bin"
    }
  ],
  "extensionsUsed": [
    "KHR_materials_unlit"
  ],
  "images": [
    {
      "uri": "textures/material_1_baseColor.jpeg"
    },
    {
      "uri": "textures/material_2_baseColor.jpeg"
    }
  ],
  "materials": [
    {
      "doubleSided": true,
      "extensions": {
        "KHR_materials_unlit": {}
      },
      "name": "material_1",
      "pbrMetallicRoughness": {
        "baseColorTexture": {
          "index": 0
        },
        "metallicFactor": 0.0
      }
    },
    {
      "doubleSided": true,
      "extensions": {
        "KHR_materials_unlit": {}
      },
      "name": "material_2",
      "pbrMetallicRoughness": {
        "baseColorTexture": {
          "index": 1
        },
        "metallicFactor": 0.0
      }
    }
  ],
  "meshes": [
    {
      "name": "Object_0",
      "primitives": [
        {
          "attributes": {
            "NORMAL": 1,
            "POSITION": 0,
            "TEXCOORD_0": 2
          },
          "indices": 3,
          "material": 0,
          "mode": 4
        }
      ]
    },
    {
      "name": "Object_1",
      "primitives": [
        {
          "attributes": {
            "NORMAL": 5,
            "POSITION": 4,
            "TEXCOORD_0": 6
          },
          "indices": 7,
          "material": 1,
          "mode": 4
        }
      ]
    }
  ],
  "nodes": [
    {
      "children": [
        1
      ],
      "matrix": [
        -0.05346972867846489,
        -2.2172696756981095e-16,
        0.9985694885253906,
        0.0,
        0.9985694885253906,
        -1.1872664779858353e-17,
        0.05346972867846489,
        0.0,
        0.0,
        1.0,
        2.220446049250313e-16,
        0.0,
        0.0,
        0.0,
        0.0,
        1.0
      ],
      "name": "Sketchfab_model"
    },
    {
      "children": [
        2,
        3
      ],
      "name": "shoeobj.obj.cleaner.materialmerger.gles"
    },
    {
      "mesh": 0,
      "name": "Object_2"
    },
    {
      "mesh": 1,
      "name": "Object_3"
    }
  ],
  "samplers": [
    {
      "magFilter": 9729,
      "minFilter": 9987,
      "wrapS": 10497,
      "wrapT": 10497
    }
  ],
  "scene": 0,
  "scenes": [
    {
      "name": "Sketchfab_Scene",
      "nodes": [
        0
      ]
    }
  ],
  "textures": [
    {
      "sampler": 0,
      "source": 0
    },
    {
      "sampler": 0,
      "source": 1
    }
  ]
}
